<?xml version="1.0" encoding="UTF-8" standalone="no"?>
<!-- Created with Inkscape (http://www.inkscape.org/) -->

<svg
   xmlns:dc="http://purl.org/dc/elements/1.1/"
   xmlns:cc="http://creativecommons.org/ns#"
   xmlns:rdf="http://www.w3.org/1999/02/22-rdf-syntax-ns#"
   xmlns:svg="http://www.w3.org/2000/svg"
   xmlns="http://www.w3.org/2000/svg"
   xmlns:sodipodi="http://sodipodi.sourceforge.net/DTD/sodipodi-0.dtd"
   xmlns:inkscape="http://www.inkscape.org/namespaces/inkscape"
   width="48"
   height="48"
   id="svg1239"
   version="1.1"
   inkscape:version="0.48+devel r12820"
   sodipodi:docname="folder-download.svg">
  <defs
     id="defs1241" />
  <sodipodi:namedview
     id="base"
     pagecolor="#ffffff"
     bordercolor="#666666"
     borderopacity="1.0"
     inkscape:pageopacity="0.0"
     inkscape:pageshadow="2"
     inkscape:zoom="4.5924688"
     inkscape:cx="5.3377586"
     inkscape:cy="18.418595"
     inkscape:document-units="px"
     inkscape:current-layer="layer1"
     showgrid="false"
     fit-margin-top="0"
     fit-margin-left="0"
     fit-margin-right="0"
     fit-margin-bottom="0"
     inkscape:window-width="1366"
     inkscape:window-height="673"
     inkscape:window-x="0"
     inkscape:window-y="24"
     inkscape:window-maximized="1"
     showguides="false" />
  <metadata
     id="metadata1244">
    <rdf:RDF>
      <cc:Work
         rdf:about="">
        <dc:format>image/svg+xml</dc:format>
        <dc:type
           rdf:resource="http://purl.org/dc/dcmitype/StillImage" />
        <dc:title />
      </cc:Work>
    </rdf:RDF>
  </metadata>
  <g
     inkscape:label="Capa 1"
     inkscape:groupmode="layer"
     id="layer1"
     transform="translate(-644.57142,-419.79076)">
    <g
       id="layer2"
       inkscape:label="Capa 2"
       transform="translate(523.87457,416.74394)" />
    <g
       transform="translate(572.74846,418.35818)"
       id="layer2-82"
       inkscape:label="Capa 2" />
    <g
       transform="translate(551.96208,383.80498)"
       id="layer2-6"
       inkscape:label="Capa 2" />
    <g
       transform="translate(562.12631,385.23759)"
       id="layer2-8"
       inkscape:label="Capa 2" />
    <g
       id="layer2-0"
       inkscape:label="Capa 2"
       transform="matrix(1.3333333,0,0,1.3333333,517.47921,425.35103)" />
    <g
       transform="matrix(0.99999694,0,0,0.99999694,42.859071,-71.427039)"
       id="layer1-9"
       inkscape:label="Capa 1">
      <path
         id="rect3278-6"
         transform="translate(601.71428,491.21933)"
         d="m 0,9 0,30 26,0 0,-15 -4,0 0,11 -18,0 0,-22 9,0 0,-4 -13,0 z"
         style="fill:#4d4d4d;fill-opacity:1;fill-rule:evenodd;stroke:none"
         inkscape:connector-curvature="0" />
      <ellipse
         id="path3302"
         style="fill:none;stroke:none"
         cx="616.71289"
         cy="528.21936"
         rx="2.0013857"
         ry="2.0000615"
         d="m 618.71428,528.21936 a 2.0013857,2.0000615 0 0 1 -2.00139,2.00006 2.0013857,2.0000615 0 0 1 -2.00139,-2.00006 2.0013857,2.0000615 0 0 1 2.00139,-2.00006 2.0013857,2.0000615 0 0 1 2.00139,2.00006 z" />
      <ellipse
         style="fill:none;stroke:none"
         id="path3316"
         cx="629.71289"
         cy="528.21936"
         rx="2.0013857"
         ry="2.0000615"
         d="m 631.71428,528.21936 a 2.0013857,2.0000615 0 0 1 -2.00139,2.00006 2.0013857,2.0000615 0 0 1 -2.00139,-2.00006 2.0013857,2.0000615 0 0 1 2.00139,-2.00006 2.0013857,2.0000615 0 0 1 2.00139,2.00006 z" />
      <rect
         transform="scale(1,-1)"
         y="-511.21933"
         x="618.71429"
         height="10.999969"
         width="9"
         id="rect3320-2"
         style="fill:#4d4d4d;fill-opacity:1;fill-rule:evenodd;stroke:none" />
      <ellipse
         ry="2.0000615"
         rx="2"
         cy="515.21936"
         cx="603.71423"
         style="fill:none;stroke:none"
         id="path3367"
         d="m 605.71423,515.21936 a 2,2.0000615 0 0 1 -2,2.00006 2,2.0000615 0 0 1 -2,-2.00006 2,2.0000615 0 0 1 2,-2.00006 2,2.0000615 0 0 1 2,2.00006 z" />
      <rect
         transform="scale(1,-1)"
         style="fill:none;stroke:none"
         id="rect3265"
         width="18"
         height="18"
         x="631.71429"
         y="-530.21936" />
      <rect
         transform="scale(1,-1)"
         y="-523.21936"
         x="638.71429"
         height="11"
         width="4"
         id="rect3372-3"
         style="fill:#4d4d4d;fill-opacity:1;fill-rule:evenodd;stroke:none" />
      <path
         inkscape:transform-center-x="-2.0424436e-05"
         transform="matrix(1.7361919,0,0,-1.2251444,-469.71636,1153.859)"
         inkscape:transform-center-y="1.8332906"
         d="m 644.76201,518.01213 -10.36752,0 5.18376,-8.97853 z"
         inkscape:randomized="0"
         inkscape:rounded="0"
         inkscape:flatsided="true"
         sodipodi:arg2="1.5707963"
         sodipodi:arg1="0.52359878"
         sodipodi:r2="2.9928446"
         sodipodi:r1="5.9856892"
         sodipodi:cy="515.01929"
         sodipodi:cx="639.57825"
         sodipodi:sides="3"
         id="path3419"
         style="fill:#4d4d4d;fill-opacity:1;fill-rule:evenodd;stroke:none"
         sodipodi:type="star" />
      <ellipse
         transform="scale(1,-1)"
         id="path3421"
         style="fill:none;stroke:none"
         cx="633.71289"
         cy="-514.21936"
         rx="2.0013857"
         ry="2.0000615"
         d="m 635.71428,-514.21936 a 2.0013857,2.0000615 0 0 1 -2.00139,2.00006 2.0013857,2.0000615 0 0 1 -2.00139,-2.00006 2.0013857,2.0000615 0 0 1 2.00139,-2.00006 2.0013857,2.0000615 0 0 1 2.00139,2.00006 z" />
      <ellipse
         transform="scale(1,-1)"
         style="fill:none;stroke:none"
         id="path3423"
         cx="647.71289"
         cy="-514.21936"
         rx="2.0013857"
         ry="2.0000615"
         d="m 649.71428,-514.21936 a 2.0013857,2.0000615 0 0 1 -2.00139,2.00006 2.0013857,2.0000615 0 0 1 -2.00139,-2.00006 2.0013857,2.0000615 0 0 1 2.00139,-2.00006 2.0013857,2.0000615 0 0 1 2.00139,2.00006 z" />
    </g>
  </g>
</svg>
